<svg width="4500" height="1455" viewBox="0 0 4500 1455" fill="none" xmlns="http://www.w3.org/2000/svg">
<g opacity="0.8">
<mask id="mask0_116_271" style="mask-type:alpha" maskUnits="userSpaceOnUse" x="0" y="0" width="4500" height="1455">
<rect width="4500" height="1454.46" fill="#D9D9D9"/>
</mask>
<g mask="url(#mask0_116_271)">
<rect x="2250" y="590.099" width="750" height="532.435" fill="#F0DDB8"/>
<ellipse cx="2625" cy="1122.27" rx="375" ry="332.183" fill="#F0DDB8"/>
<rect x="1500" y="590.099" width="750" height="532.435" fill="#E27A4D"/>
<ellipse cx="1875" cy="1122.27" rx="375" ry="332.183" fill="#E27A4D"/>
<rect x="750" y="590.099" width="750" height="532.435" fill="#F0DDB8"/>
<ellipse cx="1125" cy="1122.27" rx="375" ry="332.183" fill="#F0DDB8"/>
<rect y="590.099" width="750" height="532.435" fill="#CF6F46"/>
<ellipse cx="375" cy="1122.27" rx="375" ry="332.183" fill="#CF6F46"/>
<rect x="3000" y="590.099" width="750" height="532.435" fill="#E1794C"/>
<ellipse cx="3375" cy="1122.27" rx="375" ry="332.183" fill="#E1794C"/>
<rect x="3750" y="590.099" width="750" height="532.435" fill="#EDDDB7"/>
<ellipse cx="4125" cy="1122.27" rx="375" ry="332.183" fill="#EDDDB7"/>
<g filter="url(#filter0_d_116_271)">
<rect x="2624.75" y="354.951" width="750" height="532.435" fill="#86C0AC"/>
<ellipse cx="2999.75" cy="887.124" rx="375" ry="332.183" fill="#86C0AC"/>
<rect x="1874.75" y="354.951" width="750" height="532.435" fill="#47998E"/>
<ellipse cx="2249.75" cy="887.124" rx="375" ry="332.183" fill="#47998E"/>
<rect x="1124.75" y="354.951" width="750" height="532.435" fill="#83BCA8"/>
<ellipse cx="1499.75" cy="887.124" rx="375" ry="332.183" fill="#83BCA8"/>
<rect x="374.752" y="354.951" width="750" height="532.435" fill="#489990"/>
<ellipse cx="749.752" cy="887.124" rx="375" ry="332.183" fill="#489990"/>
<rect x="3374.75" y="354.951" width="750" height="532.435" fill="#479A90"/>
<ellipse cx="3749.75" cy="887.124" rx="375" ry="332.183" fill="#479A90"/>
<rect x="4124.75" y="354.951" width="750" height="532.435" fill="#85C0AB"/>
<ellipse cx="4499.75" cy="887.124" rx="375" ry="332.183" fill="#85C0AB"/>
<rect x="-375.248" y="347.03" width="750" height="532.435" fill="#85C0AB"/>
<ellipse cx="-0.247559" cy="879.203" rx="375" ry="332.183" fill="#85C0AB"/>
</g>
<g filter="url(#filter1_d_116_271)">
<rect x="2250" width="750" height="532.435" fill="#86C0AC"/>
<ellipse cx="2625" cy="532.173" rx="375" ry="332.183" fill="#86C0AC"/>
<rect x="1500" width="750" height="532.435" fill="#47998E"/>
<ellipse cx="1875" cy="532.173" rx="375" ry="332.183" fill="#47998E"/>
<rect x="750" width="750" height="532.435" fill="#83BCA8"/>
<ellipse cx="1125" cy="532.173" rx="375" ry="332.183" fill="#83BCA8"/>
<rect width="750" height="532.435" fill="#489990"/>
<ellipse cx="375" cy="532.173" rx="375" ry="332.183" fill="#489990"/>
<rect x="3000" width="750" height="532.435" fill="#479A90"/>
<ellipse cx="3375" cy="532.173" rx="375" ry="332.183" fill="#479A90"/>
<rect x="3750" width="750" height="532.435" fill="#85C0AB"/>
<ellipse cx="4125" cy="532.173" rx="375" ry="332.183" fill="#85C0AB"/>
</g>
</g>
</g>
<defs>
<filter id="filter0_d_116_271" x="-375.248" y="347.03" width="5334" height="961.277" filterUnits="userSpaceOnUse" color-interpolation-filters="sRGB">
<feFlood flood-opacity="0" result="BackgroundImageFix"/>
<feColorMatrix in="SourceAlpha" type="matrix" values="0 0 0 0 0 0 0 0 0 0 0 0 0 0 0 0 0 0 127 0" result="hardAlpha"/>
<feOffset dx="62" dy="67"/>
<feGaussianBlur stdDeviation="11"/>
<feComposite in2="hardAlpha" operator="out"/>
<feColorMatrix type="matrix" values="0 0 0 0 0 0 0 0 0 0 0 0 0 0 0 0 0 0 0.25 0"/>
<feBlend mode="normal" in2="BackgroundImageFix" result="effect1_dropShadow_116_271"/>
<feBlend mode="normal" in="SourceGraphic" in2="effect1_dropShadow_116_271" result="shape"/>
</filter>
<filter id="filter1_d_116_271" x="0" y="0" width="4588" height="943.356" filterUnits="userSpaceOnUse" color-interpolation-filters="sRGB">
<feFlood flood-opacity="0" result="BackgroundImageFix"/>
<feColorMatrix in="SourceAlpha" type="matrix" values="0 0 0 0 0 0 0 0 0 0 0 0 0 0 0 0 0 0 127 0" result="hardAlpha"/>
<feOffset dx="80" dy="71"/>
<feGaussianBlur stdDeviation="4"/>
<feComposite in2="hardAlpha" operator="out"/>
<feColorMatrix type="matrix" values="0 0 0 0 0 0 0 0 0 0 0 0 0 0 0 0 0 0 0.25 0"/>
<feBlend mode="normal" in2="BackgroundImageFix" result="effect1_dropShadow_116_271"/>
<feBlend mode="normal" in="SourceGraphic" in2="effect1_dropShadow_116_271" result="shape"/>
</filter>
</defs>
</svg>
